<svg xmlns="http://www.w3.org/2000/svg" viewBox="0 0 800 600"><rect width="800" height="600" rx="44" fill="#f4f1e9"/><circle cx="420" cy="280" r="190" fill="none" stroke="#b8c7bd" stroke-width="2"/><circle cx="420" cy="280" r="140" fill="none" stroke="#d5dfd8" stroke-width="24" stroke-dasharray="230 650"/><path d="M250 560c30-110 70-170 125-215" fill="none" stroke="#244b48" stroke-width="8"/><path d="M330 430c-50-30-70-70-65-120 48 5 80 28 98 70z" fill="#496f63"/><path d="M290 500c-60-5-103-35-130-88 58-18 105-7 142 35z" fill="#9db5aa"/><path d="M555 560c-10-105-45-175-95-225" fill="none" stroke="#244b48" stroke-width="8"/><path d="M500 420c55-25 92-62 105-110-50-2-91 15-122 54z" fill="#183c39"/><path d="M550 500c60-12 100-47 120-102-60-8-105 10-138 55z" fill="#718d7f"/><ellipse cx="430" cy="238" rx="94" ry="120" fill="#10191b"/><ellipse cx="452" cy="245" rx="58" ry="78" fill="#df7f55" transform="rotate(9 452 245)"/><rect x="430" y="310" width="48" height="82" rx="20" fill="#df7f55"/><path d="M335 565c5-130 58-190 132-190 72 0 124 57 132 190z" fill="#fff8ef"/><path d="M398 258c18 18 36 18 54 0" fill="none" stroke="#7b3f31" stroke-width="4" stroke-linecap="round"/><circle cx="436" cy="225" r="4" fill="#202322"/><path d="M500 185c-42-20-85-12-112 23 3-80 118-118 172-32z" fill="#10191b"/><g fill="#f6c8c8"><circle cx="628" cy="430" r="48"/><circle cx="676" cy="456" r="34"/><circle cx="605" cy="478" r="30"/></g><text x="680" y="100" font-size="58" fill="#141615">✦</text></svg>